<svg width="27" height="26" viewBox="0 0 27 26" fill="none" xmlns="http://www.w3.org/2000/svg">
<g clip-path="url(#clip0_5_564)">
<path d="M11.4147 14.9062C12.9803 16.4356 14.8747 17.6164 16.9647 18.3657L19.7922 16.199C19.876 16.1434 19.9754 16.1137 20.0772 16.1137C20.179 16.1137 20.2784 16.1434 20.3622 16.199L25.6122 19.4562C25.8115 19.5716 25.9802 19.7301 26.105 19.919C26.2298 20.108 26.3073 20.3223 26.3313 20.5451C26.3553 20.7678 26.3252 20.9929 26.2433 21.2025C26.1615 21.4121 26.0301 21.6006 25.8597 21.7529L23.3997 24.0929C23.0474 24.4281 22.6144 24.6741 22.1393 24.8089C21.6643 24.9438 21.162 24.9633 20.6772 24.8657C15.8413 23.9039 11.384 21.6514 7.81469 18.3657C4.32455 15.0472 1.9094 10.8248 0.862191 6.21068C0.75874 5.75108 0.780332 5.27355 0.924873 4.82435C1.06941 4.37516 1.332 3.96953 1.68719 3.64679L4.23719 1.2779C4.39499 1.12175 4.58743 1.00199 4.8001 0.927607C5.01277 0.85322 5.24016 0.826128 5.46525 0.848358C5.69033 0.870589 5.90728 0.941567 6.09984 1.05598C6.2924 1.17039 6.45559 1.32526 6.57719 1.50901L10.0722 6.49957C10.1325 6.57793 10.165 6.67288 10.165 6.7704C10.165 6.86793 10.1325 6.96287 10.0722 7.04123L7.76969 9.70623C8.56888 11.6786 9.81399 13.4549 11.4147 14.9062Z" fill="#F6F9FC"/>
</g>
<defs>
<clipPath id="clip0_5_564">
<rect width="27" height="26" fill="white"/>
</clipPath>
</defs>
</svg>
