<svg width="27" height="30" viewBox="0 0 27 30" fill="none" xmlns="http://www.w3.org/2000/svg">
<path d="M22.956 5.68945C20.4308 3.22852 17.0679 1.875 13.494 1.875C6.11719 1.875 0.114509 7.71094 0.114509 14.8828C0.114509 17.1738 0.729241 19.4121 1.89844 21.3867L0 28.125L7.09353 26.3145C9.04621 27.3516 11.246 27.8965 13.4879 27.8965H13.494C20.8647 27.8965 27 22.0605 27 14.8887C27 11.4141 25.4813 8.15039 22.956 5.68945ZM13.494 25.7051C11.4931 25.7051 9.53438 25.1836 7.82879 24.1992L7.425 23.9648L3.2183 25.0371L4.33929 21.0469L4.07411 20.6367C2.95915 18.9141 2.37455 16.9277 2.37455 14.8828C2.37455 8.92383 7.36473 4.07227 13.5 4.07227C16.4712 4.07227 19.2616 5.19727 21.3589 7.24219C23.4562 9.28711 24.746 12 24.74 14.8887C24.74 20.8535 19.6232 25.7051 13.494 25.7051ZM19.5931 17.6074C19.2616 17.4434 17.6163 16.6582 17.3089 16.5527C17.0016 16.4414 16.7786 16.3887 16.5556 16.7168C16.3326 17.0449 15.6938 17.7715 15.4949 17.9941C15.302 18.2109 15.1031 18.2402 14.7717 18.0762C12.8069 17.1211 11.5172 16.3711 10.2214 14.209C9.8779 13.6348 10.565 13.6758 11.2038 12.4336C11.3123 12.2168 11.258 12.0293 11.1737 11.8652C11.0893 11.7012 10.4203 10.1016 10.1431 9.45117C9.87188 8.81836 9.59464 8.90625 9.38973 8.89453C9.19688 8.88281 8.97388 8.88281 8.75089 8.88281C8.5279 8.88281 8.16629 8.96484 7.85893 9.28711C7.55156 9.61523 6.68973 10.4004 6.68973 12C6.68973 13.5996 7.88906 15.1465 8.05179 15.3633C8.22054 15.5801 10.4083 18.8613 13.7652 20.2734C15.8866 21.1641 16.7183 21.2402 17.779 21.0879C18.4239 20.9941 19.7558 20.3027 20.033 19.541C20.3103 18.7793 20.3103 18.1289 20.2259 17.9941C20.1475 17.8477 19.9246 17.7656 19.5931 17.6074Z" fill="#F6F9FC"/>
</svg>
