<svg width="27" height="27" viewBox="0 0 27 27" fill="none" xmlns="http://www.w3.org/2000/svg">
<g clip-path="url(#clip0_5_577)">
<path d="M13.5 2.43253C17.1046 2.43253 17.5315 2.44624 18.9551 2.51111C20.2713 2.57122 20.9862 2.79112 21.4619 2.97601C22.092 3.22091 22.5417 3.51348 23.0141 3.98587C23.4866 4.45827 23.7791 4.90799 24.024 5.53806C24.2089 6.01383 24.4288 6.7287 24.4889 8.04484C24.5538 9.46846 24.5675 9.89539 24.5675 13.5C24.5675 17.1047 24.5538 17.5316 24.4889 18.9552C24.4288 20.2714 24.2089 20.9862 24.024 21.4619C23.7791 22.092 23.4865 22.5418 23.0141 23.0142C22.5417 23.4866 22.092 23.7792 21.4619 24.024C20.9862 24.2089 20.2713 24.4289 18.9551 24.4889C17.5318 24.5539 17.1048 24.5676 13.5 24.5676C9.89508 24.5676 9.46814 24.5539 8.04484 24.4889C6.72859 24.4288 6.01383 24.2089 5.53806 24.024C4.90799 23.7792 4.45816 23.4866 3.98577 23.0142C3.51338 22.5417 3.2208 22.092 2.97601 21.4619C2.79112 20.9863 2.57112 20.2714 2.51111 18.9552C2.44614 17.5316 2.43243 17.1047 2.43243 13.5C2.43243 9.89539 2.44614 9.46846 2.51111 8.04495C2.57122 6.7287 2.79112 6.01383 2.97601 5.53806C3.2208 4.90799 3.51338 4.45827 3.98577 3.98587C4.45827 3.51338 4.90799 3.22091 5.53806 2.97601C6.01372 2.79112 6.72859 2.57122 8.04484 2.51111C9.46835 2.44624 9.89529 2.43253 13.5 2.43253ZM13.5 0C9.83359 0 9.37385 0.0155039 7.93399 0.0812109C6.49698 0.146812 5.51559 0.375047 4.65697 0.70875C3.76914 1.05374 3.0163 1.51537 2.26579 2.26589C1.51527 3.01641 1.05374 3.76924 0.70875 4.65697C0.374941 5.5157 0.146812 6.49709 0.0812109 7.93399C0.0155039 9.37385 0 9.83359 0 13.5C0 17.1664 0.0155039 17.6261 0.0812109 19.066C0.146812 20.503 0.374941 21.4844 0.70875 22.343C1.05363 23.2308 1.51527 23.9837 2.26579 24.7342C3.0163 25.4847 3.76914 25.9463 4.65697 26.2913C5.5157 26.6251 6.49698 26.8532 7.93389 26.9188C9.37385 26.9845 9.83359 27 13.5 27C17.1664 27 17.6261 26.9845 19.066 26.9188C20.5029 26.8532 21.4843 26.6251 22.3429 26.2913C23.2308 25.9464 23.9836 25.4847 24.7341 24.7342C25.4846 23.9837 25.9463 23.2309 26.2913 22.343C26.625 21.4843 26.8532 20.503 26.9188 19.0661C26.9845 17.6261 27 17.1664 27 13.5C27 9.83359 26.9845 9.37385 26.9188 7.93399C26.8532 6.49709 26.625 5.5157 26.2913 4.65708C25.9463 3.76924 25.4846 3.01641 24.7341 2.26589C23.9836 1.51537 23.2308 1.05363 22.343 0.70875C21.4843 0.375047 20.5029 0.146812 19.066 0.0812109C17.6261 0.0155039 17.1664 0 13.5 0ZM13.5 6.56754C9.67127 6.56754 6.56754 9.67148 6.56754 13.5C6.56754 17.3287 9.67127 20.4325 13.5 20.4325C17.3286 20.4325 20.4325 17.3287 20.4325 13.5C20.4325 9.67138 17.3286 6.56754 13.5 6.56754ZM13.5 18C11.0147 18 8.99996 15.9853 8.99996 13.5C8.99996 11.0147 11.0147 8.99996 13.5 8.99996C15.9853 8.99996 18 11.0147 18 13.5C18 15.9853 15.9853 18 13.5 18ZM22.3263 6.29364C22.3263 7.18843 21.6011 7.91364 20.7063 7.91364C19.8116 7.91364 19.0863 7.18843 19.0863 6.29364C19.0863 5.39895 19.8116 4.67364 20.7063 4.67364C21.6011 4.67364 22.3263 5.39895 22.3263 6.29364Z" fill="#F6F9FC"/>
</g>
<defs>
<clipPath id="clip0_5_577">
<rect width="27" height="27" fill="white"/>
</clipPath>
</defs>
</svg>
