<svg width="22" height="19" viewBox="0 0 22 19" fill="none" xmlns="http://www.w3.org/2000/svg">
<path d="M0 5.9684V14.9C0 15.8548 0.386308 16.7705 1.07394 17.4456C1.76157 18.1207 2.69421 18.5 3.66667 18.5H18.3333C19.3058 18.5 20.2384 18.1207 20.9261 17.4456C21.6137 16.7705 22 15.8548 22 14.9V4.1C22 3.14522 21.6137 2.22955 20.9261 1.55442C20.2384 0.879284 19.3058 0.5 18.3333 0.5H3.66667C2.69421 0.5 1.76157 0.879284 1.07394 1.55442C0.386308 2.22955 0 3.14522 0 4.1V5.9684ZM3.66667 2.3H18.3333C18.8196 2.3 19.2859 2.48964 19.6297 2.82721C19.9735 3.16477 20.1667 3.62261 20.1667 4.1V5.432L11 10.2776L1.83333 5.432V4.1C1.83333 3.62261 2.02649 3.16477 2.3703 2.82721C2.71412 2.48964 3.18044 2.3 3.66667 2.3ZM1.83333 7.4768L10.5655 12.092C10.699 12.1626 10.8483 12.1995 11 12.1995C11.1517 12.1995 11.301 12.1626 11.4345 12.092L20.1667 7.4768V14.9C20.1667 15.3774 19.9735 15.8352 19.6297 16.1728C19.2859 16.5104 18.8196 16.7 18.3333 16.7H3.66667C3.18044 16.7 2.71412 16.5104 2.3703 16.1728C2.02649 15.8352 1.83333 15.3774 1.83333 14.9V7.4768Z" fill="#F6F9FC"/>
</svg>
