<svg width="27" height="27" viewBox="0 0 27 27" fill="none" xmlns="http://www.w3.org/2000/svg">
<path d="M13.1423 23.6562C15.9308 23.6562 18.605 22.5484 20.5767 20.5767C22.5484 18.605 23.6562 15.9308 23.6562 13.1423C23.6562 10.3539 22.5484 7.67962 20.5767 5.7079C18.605 3.73617 15.9308 2.62846 13.1423 2.62846C10.3539 2.62846 7.67962 3.73617 5.7079 5.7079C3.73617 7.67962 2.62846 10.3539 2.62846 13.1423C2.62846 15.9308 3.73617 18.605 5.7079 20.5767C7.67962 22.5484 10.3539 23.6562 13.1423 23.6562ZM13.1423 26.2846C5.88381 26.2846 0 20.4008 0 13.1423C0 5.88381 5.88381 0 13.1423 0C20.4008 0 26.2846 5.88381 26.2846 13.1423C26.2846 20.4008 20.4008 26.2846 13.1423 26.2846Z" fill="#F6F9FC"/>
<path d="M19.7136 9.13033C19.23 9.34061 18.7108 9.48517 18.1654 9.54826C18.7227 9.2197 19.1485 8.69926 19.3509 8.08026C18.8199 8.38972 18.2405 8.60743 17.6371 8.72423C17.3833 8.4582 17.078 8.24665 16.7397 8.1025C16.4015 7.95834 16.0374 7.88459 15.6697 7.88576C14.1807 7.88576 12.9742 9.07514 12.9742 10.5405C12.9742 10.7482 12.9979 10.9505 13.0439 11.145C11.9758 11.0943 10.9301 10.8215 9.97337 10.3441C9.01665 9.86663 8.16995 9.19499 7.48731 8.37202C7.24754 8.77562 7.12131 9.23652 7.12195 9.70597C7.12195 10.6259 7.59902 11.4407 8.32184 11.9152C7.89399 11.9018 7.4753 11.7879 7.09961 11.5827V11.6155C7.10367 12.2325 7.32145 12.829 7.71587 13.3035C8.1103 13.7779 8.65698 14.101 9.26283 14.2177C8.86509 14.3229 8.44892 14.3382 8.04454 14.2624C8.22081 14.7932 8.55798 15.2559 9.00922 15.5863C9.46046 15.9167 10.0034 16.0985 10.5626 16.1063C9.60317 16.8456 8.42519 17.245 7.21395 17.2418C6.9971 17.2418 6.78288 17.2286 6.57129 17.205C7.80729 17.9873 9.24044 18.4017 10.7032 18.3996C15.6631 18.3996 18.3744 14.3544 18.3744 10.8454L18.3652 10.5011C18.8939 10.1295 19.3508 9.66507 19.7136 9.13033Z" fill="#F6F9FC"/>
</svg>
