<svg width="26" height="25" viewBox="0 0 26 25" fill="none" xmlns="http://www.w3.org/2000/svg">
<path d="M13.2256 0.5C14.2963 0.5 17.9351 0.797139 19.6485 4.59088C20.2196 5.87099 20.0839 8.03769 19.9702 9.78198V9.84462C19.9572 10.0374 19.945 10.2172 19.9361 10.3923C20.0165 10.4381 20.1562 10.4887 20.3715 10.4887C20.6932 10.4718 21.0824 10.3594 21.4886 10.1667C21.6665 10.0703 21.8607 10.0534 21.9923 10.0534C22.1872 10.0534 22.3814 10.0872 22.5423 10.1498C23.0289 10.3088 23.3376 10.6646 23.3376 11.0492C23.3547 11.5303 22.9143 11.9487 22.0215 12.2996C21.9281 12.3285 21.7973 12.3791 21.6494 12.4249C21.1628 12.5711 20.4178 12.8096 20.2066 13.2946C20.1091 13.5332 20.1432 13.8552 20.3374 14.223L20.3545 14.2399C20.4178 14.386 22.0044 17.9581 25.5417 18.5355C25.8211 18.5861 26.0153 18.8238 25.9991 19.0832C25.9985 19.1653 25.9811 19.2465 25.9479 19.3218C25.6895 19.9321 24.5684 20.3802 22.5414 20.6854C22.4781 20.7817 22.4107 21.0869 22.3635 21.2957C22.3275 21.4949 22.2795 21.6917 22.2197 21.8852C22.1352 22.1735 21.9232 22.3204 21.6145 22.3204H21.5852C21.4374 22.3204 21.2465 22.2867 21.0011 22.2409C20.5478 22.1443 20.0854 22.0953 19.6217 22.0948C19.2959 22.0948 18.9742 22.1116 18.6313 22.1743C17.9838 22.2875 17.4168 22.6722 16.7652 23.1235C15.8432 23.7636 14.7895 24.5 13.198 24.5C13.1346 24.5 13.0712 24.4831 13.003 24.4831H12.8421C11.2514 24.4831 10.2148 23.7636 9.28785 23.1067C8.64036 22.6545 8.09036 22.2699 7.43881 22.1574C7.1068 22.1089 6.77189 22.0823 6.4363 22.0779C5.85218 22.0779 5.39967 22.1743 5.05683 22.2409C4.86508 22.2855 4.66951 22.3121 4.47271 22.3204C4.06651 22.3204 3.90565 22.0779 3.84228 21.8683C3.77485 21.6635 3.74479 21.4499 3.69443 21.262C3.64324 21.0692 3.57988 20.7312 3.51651 20.6516C1.43918 20.4131 0.322125 19.9658 0.0597177 19.3386C0.023985 19.2624 0.0038306 19.18 0.000412051 19.0961C-0.00477116 18.9656 0.0390951 18.8379 0.123553 18.7375C0.20801 18.6371 0.327078 18.5712 0.457797 18.5524C3.99095 17.975 5.58165 14.3989 5.64501 14.2487L5.66207 14.2198C5.85705 13.8472 5.90742 13.5299 5.79287 13.2874C5.58165 12.8232 4.83667 12.5847 4.35004 12.4217C4.22119 12.39 4.09513 12.3481 3.97308 12.2964C2.77559 11.8282 2.61067 11.3006 2.6781 10.9328C2.77559 10.418 3.40602 10.0839 3.94302 10.0839C4.09982 10.0839 4.23468 10.1128 4.35735 10.1634C4.80986 10.3682 5.212 10.4815 5.55484 10.4815C5.80425 10.4815 5.96916 10.4188 6.05853 10.373L6.00735 9.76271C5.90173 8.02244 5.762 5.85171 6.33718 4.58446C8.00424 0.807579 11.6308 0.518471 12.7008 0.518471L13.1533 0.501606L13.2256 0.5Z" fill="#F6F9FC"/>
</svg>
