<svg width="22" height="25" viewBox="0 0 22 25" fill="none" xmlns="http://www.w3.org/2000/svg">
<path d="M17.4541 3.91667C17.4541 3.91667 18.1696 4.61111 17.4541 3.91667C16.495 2.83281 15.9664 1.44088 15.9668 0H11.6314V17.2222C11.5979 18.1542 11.2005 19.037 10.5226 19.6846C9.8448 20.3323 8.93953 20.6943 7.99745 20.6944C6.0051 20.6944 4.34949 19.0833 4.34949 17.0833C4.34949 14.6944 6.67857 12.9028 9.07781 13.6389V9.25C4.23725 8.61111 0 12.3333 0 17.0833C0 21.7083 3.87245 25 7.98342 25C12.389 25 15.9668 21.4583 15.9668 17.0833V8.34722C17.7249 9.59701 19.8356 10.2676 22 10.2639V5.97222C22 5.97222 19.3622 6.09722 17.4541 3.91667Z" fill="#F6F9FC"/>
</svg>
