<svg width="25" height="25" viewBox="0 0 25 25" fill="none" xmlns="http://www.w3.org/2000/svg">
<path d="M12.5 0C9.18479 0 6.00537 1.31696 3.66117 3.66117C1.31696 6.00537 0 9.18479 0 12.5C0 15.8152 1.31696 18.9946 3.66117 21.3388C6.00537 23.683 9.18479 25 12.5 25C15.8152 25 18.9946 23.683 21.3388 21.3388C23.683 18.9946 25 15.8152 25 12.5C25 9.18479 23.683 6.00537 21.3388 3.66117C18.9946 1.31696 15.8152 0 12.5 0V0ZM1.54167 13.4444H5.02778C5.08333 14.7083 5.25972 15.9639 5.55556 17.1944H2.55556C1.99612 16.0151 1.65272 14.745 1.54167 13.4444ZM13.4444 5.94444V1.65278C14.7829 2.16142 15.8827 3.15225 16.5278 4.43056C16.8125 4.9125 17.0639 5.41389 17.2778 5.93056L13.4444 5.94444ZM17.9167 7.81944C18.2389 9.04583 18.4306 10.3028 18.4861 11.5694H13.4444V7.81944H17.9167ZM11.5556 1.65278V5.94444H7.72222C7.93647 5.42736 8.1871 4.9261 8.47222 4.44444C9.11454 3.16091 10.2147 2.16481 11.5556 1.65278ZM11.5556 7.81944V11.5694H6.52778C6.58333 10.3028 6.775 9.04583 7.09722 7.81944H11.5556ZM5.02778 11.5556H1.54167C1.65272 10.255 1.99612 8.98489 2.55556 7.80555H5.55556C5.25915 9.03562 5.08241 10.2915 5.02778 11.5556ZM6.52778 13.4444H11.5556V17.1944H7.09722C6.77505 15.9682 6.58416 14.7111 6.52778 13.4444ZM11.5694 19V23.2917C10.231 22.783 9.13117 21.7922 8.48611 20.5139C8.20099 20.0322 7.95036 19.531 7.73611 19.0139L11.5694 19ZM13.4444 23.2917V19.0694H17.2778C17.0635 19.5865 16.8129 20.0878 16.5278 20.5694C15.8827 21.8477 14.7829 22.8386 13.4444 23.3472V23.2917ZM13.4444 17.125V13.375H18.4722C18.4158 14.6416 18.2249 15.8987 17.9028 17.125H13.4444ZM19.9861 13.375H23.4722C23.3612 14.6756 23.0178 15.9457 22.4583 17.125H19.4444C19.7361 15.9167 19.9125 14.6847 19.9722 13.4444L19.9861 13.375ZM19.9861 11.5C19.9225 10.2588 19.7411 9.02638 19.4444 7.81944H22.4444C23.0042 9 23.3472 10.2694 23.4583 11.5694L19.9861 11.5ZM21.375 5.94444H18.8889C18.4391 4.68097 17.7871 3.49892 16.9583 2.44444C18.6866 3.22025 20.1879 4.42507 21.3194 5.94444H21.375ZM8.04167 2.44444C7.21294 3.49892 6.56094 4.68097 6.11111 5.94444H3.68056C4.81211 4.42507 6.31336 3.22025 8.04167 2.44444ZM3.66667 19.1111H6.11111C6.56094 20.3746 7.21294 21.5566 8.04167 22.6111C6.30858 21.8236 4.80687 20.6041 3.68056 19.0694L3.66667 19.1111ZM16.9444 22.6111C17.7732 21.5566 18.4252 20.3746 18.875 19.1111H21.3194C20.181 20.6101 18.6803 21.7953 16.9583 22.5556L16.9444 22.6111Z" fill="#F6F9FC"/>
</svg>
