<svg width="23" height="22" viewBox="0 0 23 22" fill="none" xmlns="http://www.w3.org/2000/svg">
<path d="M11.0635 4.8125C11.0635 4.63016 10.991 4.4553 10.8621 4.32636C10.7332 4.19743 10.5583 4.125 10.376 4.125C10.1936 4.125 10.0188 4.19743 9.88984 4.32636C9.76091 4.4553 9.68848 4.63016 9.68848 4.8125V12.375C9.68852 12.4962 9.72058 12.6152 9.78143 12.72C9.84228 12.8248 9.92975 12.9116 10.035 12.9718L14.8475 15.7218C15.0054 15.8071 15.1905 15.8273 15.3631 15.778C15.5357 15.7287 15.6822 15.6139 15.7713 15.458C15.8603 15.3022 15.8849 15.1176 15.8397 14.9439C15.7945 14.7702 15.6832 14.621 15.5295 14.5282L11.0635 11.9763V4.8125Z" fill="#B1ACAC"/>
<path d="M11.0635 22C13.9809 22 16.7788 20.8411 18.8417 18.7782C20.9046 16.7153 22.0635 13.9174 22.0635 11C22.0635 8.08262 20.9046 5.28473 18.8417 3.22183C16.7788 1.15893 13.9809 0 11.0635 0C8.1461 0 5.3482 1.15893 3.2853 3.22183C1.2224 5.28473 0.0634766 8.08262 0.0634766 11C0.0634766 13.9174 1.2224 16.7153 3.2853 18.7782C5.3482 20.8411 8.1461 22 11.0635 22V22ZM20.6885 11C20.6885 13.5527 19.6744 16.0009 17.8694 17.8059C16.0643 19.6109 13.6162 20.625 11.0635 20.625C8.51077 20.625 6.06261 19.6109 4.25757 17.8059C2.45254 16.0009 1.43848 13.5527 1.43848 11C1.43848 8.44729 2.45254 5.99913 4.25757 4.1941C6.06261 2.38906 8.51077 1.375 11.0635 1.375C13.6162 1.375 16.0643 2.38906 17.8694 4.1941C19.6744 5.99913 20.6885 8.44729 20.6885 11V11Z" fill="#B1ACAC"/>
</svg>
