<svg width="19" height="23" viewBox="0 0 19 23" fill="none" xmlns="http://www.w3.org/2000/svg">
<path d="M1.02272 23V11.96L0.712379 11.6438C0.505483 11.4137 0.345608 11.155 0.232756 10.8675C0.119903 10.58 0.0634766 10.2925 0.0634766 10.005C0.0634766 9.69833 0.119903 9.40623 0.232756 9.1287C0.345608 8.8504 0.505483 8.60583 0.712379 8.395L4.4083 4.6H8.92241L13.4365 0L15.75 2.3575C16.54 3.14333 17.123 4.0296 17.4992 5.0163C17.8754 6.00377 18.0635 7.015 18.0635 8.05C18.0635 9.085 17.8754 10.0912 17.4992 11.0687C17.123 12.0462 16.54 12.9375 15.75 13.7425L13.4365 16.1V23H1.02272ZM3.27978 20.7H11.1795V15.1512L14.1418 12.1325C14.6873 11.5767 15.1011 10.9392 15.3832 10.22C15.6654 9.50168 15.8064 8.77833 15.8064 8.05C15.8064 7.32167 15.6654 6.60292 15.3832 5.89375C15.1011 5.18458 14.6873 4.55208 14.1418 3.99625L13.4365 3.24875L9.85344 6.9H5.33934L4.69044 7.56125L6.58072 9.4875C7.12617 10.0433 7.53996 10.6758 7.8221 11.385C8.10423 12.0942 8.24529 12.8129 8.24529 13.5412C8.24529 14.2696 8.10423 14.9933 7.8221 15.7125C7.53996 16.4308 7.12617 17.0679 6.58072 17.6238L3.27978 14.26V20.7Z" fill="#B1ACAC"/>
</svg>
