<svg width="39" height="28" viewBox="0 0 39 28" fill="none" xmlns="http://www.w3.org/2000/svg">
<path d="M0 1.93229C0 0.864188 0.86613 0 1.93229 0H17.4877C18.0002 1.52729e-08 18.4916 0.203579 18.854 0.565953C19.2164 0.928327 19.42 1.41981 19.42 1.93229C19.42 2.44476 19.2164 2.93625 18.854 3.29862C18.4916 3.66099 18.0002 3.86457 17.4877 3.86457H1.93229C1.41981 3.86457 0.928328 3.66099 0.565954 3.29862C0.20358 2.93625 0 2.44476 0 1.93229Z" fill="white"/>
<path d="M0 13.5939C0 12.5258 0.86613 11.6616 1.93229 11.6616H36.9076C37.4201 11.6616 37.9116 11.8652 38.274 12.2276C38.6364 12.5899 38.8399 13.0814 38.8399 13.5939C38.8399 14.1064 38.6364 14.5979 38.274 14.9602C37.9116 15.3226 37.4201 15.5262 36.9076 15.5262H1.93229C1.41981 15.5262 0.928328 15.3226 0.565954 14.9602C0.20358 14.5979 0 14.1064 0 13.5939Z" fill="white"/>
<path d="M1.93229 23.3228C1.41981 23.3228 0.928328 23.5263 0.565954 23.8887C0.20358 24.2511 0 24.7426 0 25.255C0 25.7675 0.20358 26.259 0.565954 26.6214C0.928328 26.9837 1.41981 27.1873 1.93229 27.1873H25.2557C25.7681 27.1873 26.2596 26.9837 26.622 26.6214C26.9844 26.259 27.188 25.7675 27.188 25.255C27.188 24.7426 26.9844 24.2511 26.622 23.8887C26.2596 23.5263 25.7681 23.3228 25.2557 23.3228H1.93229Z" fill="white"/>
</svg>
