<svg width="19" height="18" viewBox="0 0 19 18" fill="none" xmlns="http://www.w3.org/2000/svg">
<path d="M14.1846 18L11.4346 15L12.5946 13.84L14.1846 15.43L17.7746 11.84L18.9346 13.25L14.1846 18ZM9.98457 18H2.18457C1.07457 18 0.18457 17.11 0.18457 16V2C0.18457 0.89 1.07457 0 2.18457 0H16.1846C17.2946 0 18.1846 0.89 18.1846 2V9.8C17.5746 9.45 16.9046 9.2 16.1846 9.08V2H2.18457V16H9.26457C9.38457 16.72 9.63457 17.39 9.98457 18ZM9.18457 14H4.18457V12H9.18457V14ZM11.8646 10H4.18457V8H14.1846V9.08C13.3346 9.22 12.5546 9.54 11.8646 10ZM14.1846 6H4.18457V4H14.1846" fill="black"/>
</svg>
