<svg width="18" height="13" viewBox="0 0 18 13" fill="none" xmlns="http://www.w3.org/2000/svg">
<path d="M12.2143 9.1C12.0438 9.1 11.8803 9.16848 11.7597 9.29038C11.6392 9.41228 11.5714 9.57761 11.5714 9.75C11.5714 9.92239 11.6392 10.0877 11.7597 10.2096C11.8803 10.3315 12.0438 10.4 12.2143 10.4H14.7857C14.9562 10.4 15.1197 10.3315 15.2403 10.2096C15.3608 10.0877 15.4286 9.92239 15.4286 9.75C15.4286 9.57761 15.3608 9.41228 15.2403 9.29038C15.1197 9.16848 14.9562 9.1 14.7857 9.1H12.2143ZM0 2.6C0 1.91044 0.270918 1.24912 0.753154 0.761522C1.23539 0.273928 1.88944 0 2.57143 0H15.4286C16.1106 0 16.7646 0.273928 17.2468 0.761522C17.7291 1.24912 18 1.91044 18 2.6V10.4C18 11.0896 17.7291 11.7509 17.2468 12.2385C16.7646 12.7261 16.1106 13 15.4286 13H2.57143C1.88944 13 1.23539 12.7261 0.753154 12.2385C0.270918 11.7509 0 11.0896 0 10.4V2.6ZM16.7143 2.6C16.7143 2.25522 16.5788 1.92456 16.3377 1.68076C16.0966 1.43696 15.7696 1.3 15.4286 1.3H2.57143C2.23044 1.3 1.90341 1.43696 1.66229 1.68076C1.42117 1.92456 1.28571 2.25522 1.28571 2.6V3.9H16.7143V2.6ZM1.28571 10.4C1.28571 10.7448 1.42117 11.0754 1.66229 11.3192C1.90341 11.563 2.23044 11.7 2.57143 11.7H15.4286C15.7696 11.7 16.0966 11.563 16.3377 11.3192C16.5788 11.0754 16.7143 10.7448 16.7143 10.4V5.2H1.28571V10.4Z" fill="black"/>
</svg>
